<svg width="20" height="13" viewBox="0 0 20 13" fill="none" xmlns="http://www.w3.org/2000/svg">
<path fill-rule="evenodd" clip-rule="evenodd" d="M0.853211 0.0569445C0.593211 0.127944 0.423211 0.229944 0.266211 0.408944C-0.118789 0.846944 -0.0907895 1.45094 0.380211 2.85394C1.05721 4.87394 2.24921 7.06494 3.56621 8.71394C5.24921 10.8189 7.02121 12.0169 9.03921 12.4129C9.53121 12.5089 10.6872 12.5099 11.0682 12.4149C11.7022 12.2549 12.0482 11.9689 12.1652 11.5079C12.1822 11.4439 12.1922 10.9479 12.1892 10.4049C12.1852 9.86194 12.1942 9.35594 12.2082 9.28094L12.2342 9.14294L12.4562 9.26194C12.9312 9.51494 13.5862 10.1119 14.5602 11.1819C15.2862 11.9789 15.5062 12.1759 15.8602 12.3449L16.1542 12.4849H17.5802C19.2702 12.4849 19.2902 12.4819 19.6592 12.1139C19.8362 11.9359 19.8952 11.8449 19.9482 11.6629C20.1982 10.7989 19.5782 9.76894 17.4212 7.47394C16.9932 7.01894 16.6422 6.63394 16.6422 6.62094C16.6422 6.60794 16.8162 6.34694 17.0292 6.04294C17.8412 4.87694 18.7072 3.45094 19.1452 2.55594C19.5312 1.76794 19.5912 1.57694 19.5922 1.12994C19.5942 0.694944 19.5252 0.523945 19.2572 0.294945C18.9442 0.0259445 18.8672 0.0149445 17.2872 0.0149445C15.9062 0.0149445 15.8762 0.0169444 15.6552 0.105944C15.4949 0.178833 15.3465 0.275598 15.2152 0.392944C14.9952 0.595944 14.9712 0.636944 14.5312 1.58994C13.9522 2.84194 13.1992 4.08294 12.5512 4.85094C12.1372 5.34294 12.1702 5.48394 12.1972 3.33294C12.2272 0.926945 12.1972 0.676944 11.8392 0.306944C11.5342 -0.00805551 11.5272 -0.00905556 9.34421 0.00394444L7.47021 0.0149445L7.24021 0.132944C6.83321 0.340944 6.59221 0.776944 6.65021 1.19894C6.68121 1.42894 6.82221 1.73394 7.01821 1.99594C7.10321 2.11094 7.20821 2.27494 7.25221 2.36094C7.42621 2.70794 7.43321 2.79294 7.43521 4.46594L7.43621 6.06194L7.28521 5.89194C7.08821 5.67194 6.55121 4.85494 6.26321 4.33694C5.79221 3.49094 5.32121 2.43294 4.91621 1.31394C4.65421 0.590945 4.44021 0.309944 3.99421 0.103944C3.80621 0.0189445 3.76521 0.0159445 2.43321 0.00794445C1.32021 -5.55506e-05 1.02521 0.00894447 0.853211 0.0569445ZM3.55621 1.31494C3.59021 1.35294 3.67021 1.53294 3.73521 1.71494C4.32721 3.38994 5.15821 5.06494 5.97021 6.22094C6.28921 6.67394 6.89821 7.28794 7.17821 7.43894C7.62921 7.67994 8.18021 7.59894 8.43521 7.25194C8.68221 6.91694 8.68721 6.86594 8.68721 4.72594C8.68721 2.97894 8.68021 2.75994 8.61521 2.47794C8.53721 2.14394 8.33321 1.66094 8.18521 1.46494C8.14343 1.40979 8.10373 1.35308 8.06621 1.29494C8.04421 1.25694 8.33821 1.24694 9.48621 1.24694H10.9352L10.9372 3.21094C10.9372 4.29094 10.9532 5.35094 10.9712 5.56694C11.0092 6.02894 11.1152 6.31194 11.3162 6.48694C11.4942 6.64494 11.6122 6.68694 11.8762 6.68494C12.4552 6.68294 13.1402 6.17494 13.8482 5.22494C14.5092 4.33694 15.1512 3.23294 15.7102 2.01894C15.8812 1.64894 16.0502 1.32294 16.0852 1.29594C16.1332 1.25894 16.4262 1.24594 17.2362 1.24594C18.0802 1.24594 18.3232 1.25794 18.3222 1.29594C18.3222 1.32294 18.2612 1.49294 18.1862 1.67394C17.9282 2.29994 17.0792 3.72394 16.1562 5.07794C15.5132 6.02294 15.3752 6.29794 15.3762 6.63894C15.3782 7.10094 15.4752 7.24394 16.5252 8.34194C17.0298 8.87271 17.5148 9.42174 17.9792 9.98794C18.3342 10.4339 18.7532 11.1109 18.7532 11.2389C18.7532 11.2469 18.2402 11.2539 17.6132 11.2539H16.4732L16.3082 11.1569C16.2162 11.1039 15.8932 10.7849 15.5852 10.4439C14.2172 8.93094 13.3182 8.18394 12.6032 7.96394C12.2182 7.84694 11.7272 7.87194 11.4692 8.02394C11.2482 8.15294 11.1182 8.33994 11.0292 8.65394C10.9742 8.84594 10.9592 9.09695 10.9502 10.0199C10.9402 11.0269 10.9322 11.1549 10.8742 11.1869C10.8382 11.2069 10.5962 11.2329 10.3342 11.2439C8.93421 11.3039 7.52121 10.7599 6.19921 9.65394C4.92421 8.58794 3.68121 6.95494 2.65321 4.99394C2.05021 3.84294 1.40321 2.19594 1.29821 1.53994C1.28648 1.4644 1.2718 1.38934 1.25421 1.31494C1.23621 1.25094 1.30821 1.24694 2.36521 1.24694C3.39221 1.24694 3.50121 1.25294 3.55621 1.31494Z" fill="#333333"/>
</svg>
