<svg width="20" height="22" viewBox="0 0 20 22" fill="none" xmlns="http://www.w3.org/2000/svg">
<path fill-rule="evenodd" clip-rule="evenodd" d="M4.89819 0.322362C4.81572 0.493636 4.70554 0.755228 4.65342 0.90374C4.44014 1.5114 4.41825 1.69491 4.39453 3.07618L4.37175 4.40205L4.11003 4.87997C3.62291 5.76949 3.42303 6.5425 3.42563 7.52677C3.43088 9.53253 4.56602 11.3636 6.60122 12.6493C7.04115 12.9272 7.82223 13.3022 8.28294 13.4566C8.44326 13.5104 8.5821 13.5599 8.59152 13.5668C8.60094 13.5737 8.51654 13.6718 8.40406 13.7848C8.12185 14.0683 8.04776 14.1645 7.8613 14.4894C7.59159 14.9593 7.34117 15.7965 7.34117 16.2283V16.3739L6.72454 16.373C5.73085 16.3715 5.66282 16.3187 5.12224 15.1305C4.91546 14.676 4.69096 14.2277 4.62338 14.1343C4.41969 13.8528 3.97796 13.4932 3.65228 13.3437C3.22472 13.1475 2.86641 13.1004 1.92832 13.1171C1.17567 13.1306 1.11558 13.1379 0.877983 13.2446C0.536347 13.398 0.283058 13.6275 0.133542 13.919C-0.0422992 14.2619 -0.0447209 14.7397 0.127667 15.0918C0.38414 15.6159 0.793135 15.8624 1.47129 15.9017C1.91814 15.9276 2.0886 15.9886 2.18228 16.1563C2.2078 16.2019 2.34866 16.5498 2.49535 16.9293C2.642 17.3089 2.83492 17.7523 2.92408 17.9148C3.2671 18.5399 3.81185 19.0342 4.49346 19.3389C5.06143 19.5928 5.32104 19.6384 6.36577 19.6678L7.29633 19.694V20.847V22H11.7136H16.131L16.1298 19.2192C16.1292 17.6897 16.1095 16.25 16.0862 16.0199C16.0045 15.2162 15.6378 14.4195 15.0929 13.8615C14.9417 13.7067 14.8258 13.5743 14.8354 13.5672C14.845 13.5601 14.984 13.5104 15.1444 13.4566C16.6395 12.9554 18.1173 11.8775 18.9575 10.6753C19.6838 9.63604 19.9996 8.67565 20 7.50529C20.0003 6.49994 19.827 5.83374 19.3128 4.86404L19.0509 4.37014L19.0304 3.06025C19.0059 1.50071 18.9499 1.19591 18.5265 0.316865L18.3738 0L17.6224 0.022805C16.7734 0.0485304 16.4861 0.104705 15.9214 0.355131C15.4502 0.564112 15.1881 0.734227 14.8459 1.05311C14.6094 1.27343 14.5515 1.30714 14.4423 1.28807C14.3721 1.27579 14.0783 1.21683 13.7893 1.15696C13.0002 0.993585 12.3291 0.940889 11.3795 0.96786C10.5477 0.991438 10.1009 1.04671 9.33004 1.22129L8.91961 1.31427L8.63493 1.06488C7.77887 0.314932 6.91846 0.0109945 5.65156 0.0109945H5.0482L4.89819 0.322362ZM6.80302 1.08219C7.26072 1.2301 7.63828 1.46987 8.16199 1.94538L8.64646 2.38525L9.03648 2.27221C10.0778 1.97038 10.7871 1.88401 11.9827 1.91347C12.9946 1.93838 13.5297 2.01766 14.3887 2.27006L14.7903 2.388L15.1131 2.08754C16.0105 1.25217 16.463 1.02399 17.3301 0.969363L17.7445 0.943251L17.8178 1.11062C18.0114 1.55272 18.0581 1.99039 18.0588 3.36732L18.0593 4.68362L18.2228 4.91343C18.7669 5.67823 19.096 6.83265 19.0299 7.74464C18.8484 10.2501 16.6981 12.2614 13.4495 12.9645L12.8981 13.0838L13.7275 13.8806C14.6257 14.7436 14.8001 14.9707 14.9996 15.5364L15.1207 15.88L15.1348 18.4676L15.1489 21.0552H11.7159H8.28294V20.2593C8.28294 19.3925 8.2541 19.2554 8.0227 19.0221C7.77322 18.7705 7.72295 18.7606 6.55637 18.7333C5.55635 18.71 5.45751 18.7005 5.16157 18.5998C4.60625 18.4107 4.10626 18.0259 3.8314 17.5758C3.76669 17.4698 3.56865 17.016 3.39128 16.5672C3.05113 15.7063 2.91856 15.4743 2.65792 15.2839C2.4005 15.0959 2.18914 15.0308 1.73243 14.9989C1.26976 14.9666 1.11365 14.9046 1.02481 14.7178C0.909196 14.4749 0.993865 14.2421 1.24263 14.1189C1.41824 14.0319 2.74886 14.0278 3.04547 14.1133C3.32392 14.1936 3.63515 14.4074 3.7927 14.6267C3.86499 14.7273 4.06845 15.1374 4.24479 15.5381C4.62719 16.4067 4.71724 16.5609 4.97519 16.7886C5.45509 17.2122 5.81843 17.3187 6.78333 17.3187C7.49809 17.3187 7.67299 17.288 7.9087 17.1205C8.14898 16.9498 8.24154 16.7551 8.31025 16.2757C8.38922 15.725 8.51425 15.3201 8.72431 14.9352C8.86073 14.6852 9.02724 14.5038 9.71262 13.8587L10.5369 13.0829L9.91443 12.94C9.0942 12.7518 8.58228 12.5883 8.03628 12.34C5.23131 11.0646 3.85723 8.61995 4.58799 6.20498C4.72455 5.75382 4.90111 5.38074 5.15816 5.00014L5.36064 4.70041L5.37872 3.24686C5.39513 1.92786 5.40567 1.76256 5.49245 1.46132C5.64824 0.92036 5.6229 0.940975 6.10141 0.966314C6.34909 0.979413 6.62696 1.02532 6.80302 1.08219Z" fill="#333333"/>
</svg>
