<svg width="20" height="18" viewBox="0 0 20 18" fill="none" xmlns="http://www.w3.org/2000/svg">
<path fill-rule="evenodd" clip-rule="evenodd" d="M17.8889 0.222586C17.5019 0.352586 13.5749 1.64659 9.16191 3.10059C4.74991 4.55359 1.01291 5.78859 0.857909 5.84459C0.506909 5.97059 0.261909 6.17959 0.114909 6.47859C-0.0320914 6.77859 -0.0390914 7.23359 0.0999086 7.50459C0.212909 7.72659 0.432909 7.95859 0.619909 8.05459C0.699909 8.09659 1.72691 8.55159 2.90391 9.06859C4.08191 9.58459 5.05091 10.0126 5.05791 10.0196C5.06491 10.0276 5.36991 11.4196 5.73591 13.1156C6.10091 14.8106 6.43191 16.2616 6.46991 16.3406C6.61991 16.6476 6.97491 16.7476 7.28391 16.5706C7.36991 16.5206 8.18391 15.9236 9.09191 15.2416L10.7429 14.0026L12.6529 15.5656C13.7029 16.4256 14.6479 17.1756 14.7529 17.2326C15.0049 17.3696 15.3479 17.3986 15.6579 17.3086C15.9749 17.2166 16.3369 16.8586 16.4329 16.5436C16.4689 16.4256 17.2929 12.9476 18.2639 8.81559C20.2029 0.568585 20.0999 1.07959 19.8929 0.673586C19.8006 0.477905 19.6559 0.311668 19.4747 0.193378C19.2936 0.0750884 19.0832 0.00938658 18.8669 0.00358555C18.6159 -0.0104145 18.5349 0.00758554 17.8889 0.223586V0.222586ZM18.8289 1.27259C18.8139 1.33259 18.0189 4.70658 17.0629 8.77258C16.1069 12.8396 15.3159 16.1746 15.3059 16.1856C15.2959 16.1956 15.2559 16.1776 15.2179 16.1456C15.1809 16.1126 13.8289 15.0056 12.2149 13.6866C11.2257 12.879 10.237 12.0706 9.24891 11.2616C9.23191 11.2466 10.5959 9.79359 12.2809 8.03359C13.9669 6.27359 15.3849 4.76959 15.4329 4.69159C15.492 4.59432 15.5225 4.48238 15.5209 4.36859C15.5209 4.21459 15.4989 4.16359 15.3719 4.01959C15.2319 3.86259 15.2069 3.84959 14.9909 3.83659L14.7579 3.82159L10.1539 6.38159L5.54891 8.94159L3.35291 7.98159C2.14491 7.45359 1.17191 7.00759 1.18891 6.98959C1.22391 6.95559 18.7149 1.17459 18.8029 1.16859C18.8419 1.16559 18.8489 1.19359 18.8289 1.27259V1.27259ZM11.7649 6.85559C11.7649 6.86459 10.8909 7.78458 9.82291 8.89958C8.75491 10.0156 7.85691 10.9816 7.82791 11.0456C7.79791 11.1106 7.62191 11.7006 7.43591 12.3566C7.24891 13.0136 7.08491 13.5636 7.06991 13.5806C7.04691 13.6076 6.27691 10.1256 6.26991 9.95858C6.26691 9.90558 6.93191 9.51858 9.00591 8.36458C9.92097 7.85396 10.8373 7.34563 11.7549 6.83959C11.7599 6.83959 11.7649 6.84659 11.7649 6.85559ZM9.29291 12.8176C9.55791 13.0336 9.77491 13.2226 9.77391 13.2376C9.77391 13.2776 8.06791 14.5476 8.05691 14.5156C8.05091 14.4996 8.15291 14.1176 8.28291 13.6656C8.70491 12.2046 8.66991 12.3026 8.74491 12.3676C8.78091 12.3976 9.02691 12.6006 9.29291 12.8176Z" fill="#333333"/>
</svg>
